<svg version="1.1" xmlns:xlink="http://www.w3.org/1999/xlink" width="512" height="512" x="0" y="0" viewBox="0 0 24 24"
    style="enable-background:new 0 0 512 512">
    <g>
        <path
            d="M15.75 3v19a.75.75 0 0 1-.75.75H3c-.464 0-.909-.184-1.237-.513A1.746 1.746 0 0 1 1.25 21V3c0-.464.184-.909.513-1.237A1.746 1.746 0 0 1 3 1.25h11c.464 0 .909.184 1.237.513.329.328.513.773.513 1.237zm-1.5 0a.25.25 0 0 0-.25-.25H3a.25.25 0 0 0-.25.25v18a.25.25 0 0 0 .25.25h11.25z">
        </path>
        <path
            d="M11.75 15.5V22a.75.75 0 0 1-.75.75H6a.75.75 0 0 1-.75-.75v-6.5a1.252 1.252 0 0 1 1.25-1.25h4a1.254 1.254 0 0 1 1.25 1.25zm-5 .25v5.5h3.5v-5.5zM22.75 9v12A1.75 1.75 0 0 1 21 22.75h-6a.75.75 0 0 1-.75-.75V8a.75.75 0 0 1 .75-.75h6c.966 0 1.75.783 1.75 1.75zm-1.5 0a.25.25 0 0 0-.25-.25h-5.25v12.5H21a.25.25 0 0 0 .25-.25zM4.75 4.5h1.5V6h-1.5zM4.75 8h1.5v1.5h-1.5zM4.75 11.5h1.5V13h-1.5zM7.75 4.5h1.5V6h-1.5zM7.75 8h1.5v1.5h-1.5zM7.75 11.5h1.5V13h-1.5zM10.75 4.5h1.5V6h-1.5z">
        </path>
        <path
            d="M17.75 10.75h1.5v1.5h-1.5zM17.75 14.25h1.5v1.5h-1.5zM17.75 17.75h1.5v1.5h-1.5zM10.75 8h1.5v1.5h-1.5zM10.75 11.5h1.5V13h-1.5z">
        </path>
    </g>
</svg>