<svg version="1.1" width="512" height="512" x="0" y="0" viewBox="0 0 32 32" style="enable-background:new 0 0 512 512">
    <g>
        <path
            d="M25.331 17.243c1.207 1.087 1.948 2.401 1.948 3.837 0 1.467-.774 2.808-2.03 3.908-2.084 1.828-5.457 2.985-9.249 2.985s-7.165-1.157-9.249-2.985c-1.256-1.1-2.03-2.441-2.03-3.908 0-1.436.741-2.75 1.948-3.837a1 1 0 0 0-1.338-1.486c-1.663 1.497-2.61 3.345-2.61 5.323 0 2.017.986 3.9 2.711 5.412 2.386 2.092 6.227 3.481 10.568 3.481s8.182-1.389 10.568-3.481c1.725-1.512 2.711-3.395 2.711-5.412 0-1.978-.947-3.826-2.61-5.323a1 1 0 0 0-1.338 1.486zm-3.798 2.518c.293.401.467.846.467 1.319 0 .718-.396 1.366-1.011 1.905-1.123.984-2.945 1.595-4.989 1.595s-3.866-.611-4.989-1.595C10.396 22.446 10 21.798 10 21.08c0-.404.127-.788.347-1.141a1 1 0 1 0-1.698-1.057A4.123 4.123 0 0 0 8 21.08c0 1.268.608 2.457 1.692 3.408 1.425 1.25 3.715 2.092 6.308 2.092s4.883-.842 6.308-2.092C23.392 23.537 24 22.348 24 21.08c0-.892-.299-1.741-.852-2.499a1.002 1.002 0 0 0-1.398-.218 1.001 1.001 0 0 0-.217 1.398zm-6.366 2.954a1 1 0 0 0 1.666 0s3.008-4.533 4.814-8.612c.827-1.869 1.389-3.657 1.389-4.929 0-3.883-3.153-7.036-7.036-7.036S8.964 5.291 8.964 9.174c0 1.272.562 3.06 1.389 4.929 1.806 4.079 4.814 8.612 4.814 8.612zM16 6.703a2.9 2.9 0 0 1 2.899 2.898c0 1.6-1.299 2.899-2.899 2.899s-2.899-1.299-2.899-2.899A2.9 2.9 0 0 1 16 6.703z">
        </path>
    </g>
</svg>