<svg version="1.1" width=" 512" height="512" x="0" y="0" viewBox="0 0 512 512"
    style="enable-background:new 0 0 512 512">
    <g>
        <path
            d="M452.8 113h-44.9l13.7-72c3.5-18.8-8.8-36.9-27.6-40.4-2.1-.4-4.3-.6-6.4-.6-16.6 0-30.9 11.8-34 28.1l-16.2 85H228.9l13.7-72c3.5-18.8-8.8-36.9-27.6-40.4-2.1-.4-4.3-.6-6.4-.6-16.6 0-30.9 11.8-34 28.1l-16.2 85H83.5c-14.9 0-28.3 9.4-33.3 23.5-6.4 18.4 3.4 38.4 21.8 44.8 3.7 1.3 7.6 1.9 11.5 1.9h61.6l-27.6 145H59.2c-15 0-28.3 9.5-33.2 23.7-6.4 18.4 3.4 38.4 21.8 44.8 3.7 1.3 7.6 1.9 11.5 1.9h44.9l-13.7 72.1c-3.6 18.8 8.7 36.9 27.5 40.4 2.1.4 4.3.6 6.5.6 16.6 0 30.9-11.8 34-28.1l16.2-85h108.5l-13.7 72c-3.6 18.8 8.8 36.9 27.5 40.4 2.1.4 4.3.6 6.5.6 16.6 0 30.9-11.8 34-28.1l16.2-85h75c15 0 28.4-9.5 33.3-23.7 6.4-18.4-3.4-38.4-21.8-44.8-3.7-1.3-7.6-1.9-11.5-1.9h-61.6l27.6-145H453c15 0 28.4-9.5 33.3-23.6 6.4-18.4-3.4-38.4-21.8-44.8-3.9-1.2-7.8-1.9-11.7-1.9zM296.5 328.4H187.9l27.6-145H324z">
        </path>
    </g>
</svg>