<svg width="32" height="32" viewBox="0 0 32 32" fill="none" xmlns="http://www.w3.org/2000/svg">
<circle cx="16" cy="16" r="16" fill="#7EB0C1"/>
<path d="M11.0291 23.9237H7.29732V11.957H11.0291V23.9237ZM9.16121 10.3246C7.9679 10.3246 7 9.34037 7 8.15209C7 7.58132 7.2277 7.03393 7.633 6.63033C8.03831 6.22674 8.58802 6 9.16121 6C9.73439 6 10.2841 6.22674 10.6894 6.63033C11.0947 7.03393 11.3224 7.58132 11.3224 8.15209C11.3224 9.34037 10.3541 10.3246 9.16121 10.3246ZM24.996 23.9237H21.2722V18.0984C21.2722 16.7101 21.2441 14.9297 19.332 14.9297C17.3918 14.9297 17.0945 16.438 17.0945 17.9984V23.9237H13.3667V11.957H16.9458V13.5893H16.998C17.4963 12.6491 18.7133 11.6569 20.5289 11.6569C24.3057 11.6569 25 14.1335 25 17.3502V23.9237H24.996Z" fill="white"/>
</svg>
