<svg width="384" height="256" viewBox="0 0 384 256" fill="none" xmlns="http://www.w3.org/2000/svg"
    class="readmore-icon">
    <path
        d="M228.48 112.853L164.48 48.8533C162.505 46.8783 160.16 45.3115 157.58 44.2426C154.999 43.1737 152.233 42.6236 149.44 42.6236C146.647 42.6236 143.881 43.1737 141.3 44.2426C138.72 45.3115 136.375 46.8783 134.4 48.8533C132.425 50.8284 130.858 53.1732 129.789 55.7537C128.72 58.3343 128.17 61.1001 128.17 63.8933C128.17 66.6865 128.72 69.4524 129.789 72.0329C130.858 74.6135 132.425 76.9583 134.4 78.9333L161.92 106.453H21.3333C9.6 106.453 0 116.053 0 127.787C0 139.52 9.6 149.12 21.3333 149.12H161.92L134.4 176.64C131.423 179.619 129.399 183.416 128.584 187.548C127.769 191.68 128.2 195.961 129.824 199.848C131.447 203.734 134.188 207.05 137.7 209.376C141.212 211.701 145.335 212.93 149.547 212.907C155.093 212.907 160.427 210.773 164.693 206.72L228.693 142.72C230.671 140.746 232.24 138.402 233.311 135.821C234.381 133.241 234.932 130.474 234.932 127.68C234.932 124.886 234.381 122.119 233.311 119.539C232.24 116.958 230.671 114.614 228.693 112.64L228.48 112.853ZM213.333 42.6667H362.667C374.4 42.6667 384 33.0667 384 21.3333C384 9.6 374.4 0 362.667 0H213.333C201.6 0 192 9.6 192 21.3333C192 33.0667 201.6 42.6667 213.333 42.6667ZM362.667 106.667H277.333C265.6 106.667 256 116.267 256 128C256 139.733 265.6 149.333 277.333 149.333H362.667C374.4 149.333 384 139.733 384 128C384 116.267 374.4 106.667 362.667 106.667ZM362.667 213.333H213.333C201.6 213.333 192 222.933 192 234.667C192 246.4 201.6 256 213.333 256H362.667C374.4 256 384 246.4 384 234.667C384 222.933 374.4 213.333 362.667 213.333Z"
        fill="" />
</svg>